#!OML:ASF X:\für Bonn\!DataBase\2005_08_12_Daniel\c3d\Daniel.ASF
:FULLY-SPECIFIED
:DEGREES
345
root 16.2055 1.26218 1.13608 -784.72 -85.7596 -418.367
lowerback 38.0905 -3.82345 1.40696
upperback 8.70833 -5.70078 -1.32822
thorax -9.19626 -3.29207 0.239298
lowerneck 1.10751 3.61376 -4.20384
upperneck 4.52272 4.82509 -1.16036
head 1.13327 2.30155 0.36324
rclavicle -1.145e-013 2.13992e-013
rhumerus -32.0464 16.3583 -92.6838
rradius 33.1702
rwrist -8.10923
rhand -23.5258 -352.573
rfingers 7.12502
rthumb 2.93531 -382.533
lclavicle -1.145e-013 2.13992e-013
lhumerus -752.929 26.1368 -649.666
lradius 27.9684
lwrist -37.4065
lhand -17.5351 352.211
lfingers 7.12502
lthumb 8.71903 382.011
rfemur 360.453 -9.6194 369.95
rtibia 75.3284
rfoot 20.7797 -4.8028
rtoes 14.747
lfemur -8.20687 3.85791 -5.5937
ltibia 84.4627
lfoot 34.7074 -4.37864
ltoes 5.24234
346
root 16.2063 1.26088 1.1333 -784.528 -85.7783 -418.479
lowerback 37.9255 -3.76983 1.38429
upperback 8.6506 -5.62532 -1.2936
thorax -9.1986 -3.24922 0.250376
lowerneck 0.98904 3.61118 -4.21967
upperneck 4.29733 4.82325 -1.16114
head 1.08236 2.30529 0.36491
rclavicle 7.63333e-014 -9.29318e-014
rhumerus -32.3009 16.589 -92.6206
rradius 33.347
rwrist -7.6769
rhand -23.4766 -352.528
rfingers 7.12502
rthumb 2.98287 -382.487
lclavicle 7.63333e-014 -9.29318e-014
lhumerus -753.09 25.8065 -649.609
lradius 28.1582
lwrist -37.2022
lhand -17.3557 352.133
lfingers 7.12502
lthumb 8.89207 381.926
rfemur 360.513 -9.78395 369.842
rtibia 75.1211
rfoot 21.4237 -4.99044
rtoes 14.9673
lfemur -8.11326 3.80904 -5.6935
ltibia 84.1678
lfoot 35.8002 -4.12908
ltoes 6.03042
347
root 16.2072 1.26043 1.13055 -784.569 -85.7759 -418.359
lowerback 37.7575 -3.71271 1.33424
upperback 8.58482 -5.55541 -1.25909
thorax -9.20697 -3.20826 0.278069
lowerneck 0.93255 3.61446 -4.30775
upperneck 4.06056 4.82393 -1.13234
head 1.01529 2.30983 0.385778
rclavicle -3.18055e-014 1.52368e-013
rhumerus -32.6287 16.7186 -92.5477
rradius 33.5379
rwrist -7.20249
rhand -23.4615 -352.501
rfingers 7.12502
rthumb 2.99745 -382.459
lclavicle -3.18055e-014 1.52368e-013
lhumerus -753.328 25.4373 -649.543
lradius 28.3578
lwrist -37.0145
lhand -17.1157 352.046
lfingers 7.12502
lthumb 9.12374 381.829
rfemur 360.579 -9.93295 369.711
rtibia 74.8997
rfoot 22.0839 -5.26324
rtoes 15.1188
lfemur -7.99766 3.73264 -5.84406
ltibia 83.8422
lfoot 36.8509 -3.81863
ltoes 6.64792
348
root 16.2083 1.25997 1.12831 -784.38 -85.7928 -418.457
lowerback 37.5567 -3.67041 1.31321
upperback 8.53542 -5.4941 -1.21976
thorax -9.18708 -3.17292 0.296871
lowerneck 0.874374 3.61749 -4.38719
upperneck 3.82996 4.82494 -1.13558
head 0.951541 2.31387 0.395542
rclavicle -2.70347e-014 4.73108e-014
rhumerus -32.9509 16.8602 -92.4723
rradius 33.7216
rwrist -6.78303
rhand -23.4466 -352.495
rfingers 7.12502
rthumb 3.01182 -382.453
lclavicle -2.70347e-014 4.73108e-014
lhumerus -753.509 25.1551 -649.504
lradius 28.4305
lwrist -36.9209
lhand -16.8959 351.985
lfingers 7.12502
lthumb 9.33574 381.758
rfemur 360.642 -10.0766 369.622
rtibia 74.6607
rfoot 22.7884 -5.52075
rtoes 15.2818
lfemur -7.88167 3.63444 -5.97748
ltibia 83.4865
lfoot 37.8783 -3.46312
ltoes 7.18477
349
root 16.2093 1.2595 1.12627 -784.126 -85.808 -418.625
lowerback 37.3555 -3.63285 1.31057
upperback 8.48735 -5.43311 -1.19657
thorax -9.16817 -3.13753 0.28933
lowerneck 0.873455 3.61705 -4.46179
upperneck 3.5644 4.81684 -1.12442
head 0.867456 2.31479 0.407043
rclavicle -1.74931e-014 9.23355e-014
rhumerus -33.2861 16.9736 -92.4213
rradius 33.8614
rwrist -6.34207
rhand -23.3883 -352.526
rfingers 7.12502
rthumb 3.06814 -382.484
lclavicle -1.74931e-014 9.23355e-014
lhumerus -753.648 24.8834 -649.504
lradius 28.3689
lwrist -36.9303
lhand -16.6077 351.979
lfingers 7.12502
lthumb 9.61385 381.74
rfemur 360.712 -10.2262 369.532
rtibia 74.4131
rfoot 23.524 -5.85119
rtoes 15.4893
lfemur -7.73888 3.49615 -6.1236
ltibia 83.0798
lfoot 38.8368 -3.09013
ltoes 6.96723
